PathFileType	4	(X/Y/Z)	C:/Users/opensim2020/Desktop/walking_exp_matlab/subject03_walking14_straight_01.trc	
DataRate	CameraRate	NumFrames	NumMarkers	Units	OrigDataRate	OrigDataStartFrame	OrigNumFrames	
100.00	100.00	7	47	mm	100.00	604	205	
Frame#	Time	LFHD			RFHD			LBHD			RBHD			C7			T10			CLAV			STRN			RBAK			LSHO			LUPA			LELB			LFRM			LWRA			LWRB			LFIN			RSHO			RUPA			RELB			RFRM			RWRA			RWRB			RFIN			LASI			RASI			LPSI			RPSI			LTHI			LKNE			LTIB			LANK			LHEE			LTOE			RTHI			RKNE			RTIB			RANK			RHEE			RTOE			*39			*40			*41			*42			*43			*44			*45			*46			
		X1	Y1	Z1	X2	Y2	Z2	X3	Y3	Z3	X4	Y4	Z4	X5	Y5	Z5	X6	Y6	Z6	X7	Y7	Z7	X8	Y8	Z8	X9	Y9	Z9	X10	Y10	Z10	X11	Y11	Z11	X12	Y12	Z12	X13	Y13	Z13	X14	Y14	Z14	X15	Y15	Z15	X16	Y16	Z16	X17	Y17	Z17	X18	Y18	Z18	X19	Y19	Z19	X20	Y20	Z20	X21	Y21	Z21	X22	Y22	Z22	X23	Y23	Z23	X24	Y24	Z24	X25	Y25	Z25	X26	Y26	Z26	X27	Y27	Z27	X28	Y28	Z28	X29	Y29	Z29	X30	Y30	Z30	X31	Y31	Z31	X32	Y32	Z32	X33	Y33	Z33	X34	Y34	Z34	X35	Y35	Z35	X36	Y36	Z36	X37	Y37	Z37	X38	Y38	Z38	X39	Y39	Z39	X40	Y40	Z40	X41	Y41	Z41	X42	Y42	Z42	X43	Y43	Z43	X44	Y44	Z44	X45	Y45	Z45	X46	Y46	Z46	X47	Y47	Z47	

129	1.280	1390.19238	254.93184	1623.14673	1522.84375	254.30542	1632.41016	1396.50598	128.07936	1577.74011	1527.15271	132.27635	1586.44458	1464.13269	99.38686	1418.17163	1457.17773	75.07104	1105.02332	1456.21655	222.13702	1347.41357	1449.67334	274.32327	1183.97949	1563.04883	59.08106	1241.09521	1304.32446	160.20631	1382.85681	1233.80188	145.95648	1185.49927	1220.74146	156.68578	1062.30884	1220.40967	196.14578	937.83282	1250.06079	233.02925	825.05133	1203.72302	202.54279	824.42572	1210.11011	234.57156	747.97131	1618.04871	185.38396	1369.57947	1696.72998	215.00459	1152.68872	1712.25183	246.00456	1044.31030	1717.77307	280.59698	911.32220	1681.73584	316.91672	818.27728	1730.44495	294.05594	812.36700	1719.00024	322.69788	742.59393	1346.04431	245.38272	940.35535	1581.71387	234.11200	946.65863	1386.77856	80.70156	960.04187	1535.07043	75.25800	979.01782	1290.66589	267.60712	646.98346	1316.77869	336.62067	482.95102	1330.07849	267.30972	295.67825	1381.72278	218.42682	95.30375	1425.82996	175.46800	66.96656	1389.90698	356.13165	43.53178	1615.38196	155.99973	653.44507	1575.87085	149.26747	474.60138	1571.99292	80.44405	294.03674	1515.13440	34.68412	82.71085	1462.05054	-9.96436	56.25573	1497.51050	174.83893	36.11927																								 
130	1.290	1390.16113	267.99231	1621.85474	1522.82104	267.65027	1631.45862	1396.86230	141.13986	1576.72156	1527.50305	145.57356	1585.77954	1464.41089	112.77712	1416.98572	1456.49768	88.21690	1103.82410	1456.83936	235.37418	1346.23315	1450.67822	287.47678	1182.80505	1563.02429	72.30114	1239.71362	1304.46326	173.97585	1381.39368	1234.78894	157.92828	1183.76855	1221.71021	166.55923	1060.27856	1220.55872	200.66217	934.11328	1249.67444	231.92242	819.09558	1202.86206	201.82498	820.58142	1209.06116	229.29288	742.16443	1618.61438	197.98526	1368.68176	1698.15002	229.08083	1152.54126	1714.07214	261.78104	1044.67822	1719.16614	300.01724	912.74561	1682.89526	339.61923	821.13867	1731.22632	316.19867	814.13184	1719.66870	347.19705	745.55304	1347.03101	259.47754	938.71906	1582.49097	245.84044	945.63440	1385.74377	94.36398	958.54633	1533.85510	87.30401	977.80774	1291.88440	282.13046	646.12018	1318.94775	350.84909	482.28857	1333.33655	292.26428	291.33575	1385.51221	258.49707	87.68132	1430.56787	217.93805	56.33858	1391.66418	399.28958	44.44951	1615.65479	164.76680	653.01868	1576.51563	156.27477	474.09515	1572.22168	84.22578	294.57428	1515.37793	35.30927	83.80588	1462.22400	-9.56194	57.91394	1497.71204	175.00983	36.05243																								 
131	1.300	1390.23315	281.09091	1620.50488	1522.81909	280.95325	1630.46472	1397.22009	154.19656	1575.54749	1527.77039	158.82857	1584.92834	1464.42346	125.94405	1415.90015	1455.68579	101.35273	1102.56653	1457.45203	248.63712	1344.94873	1451.63074	300.71472	1181.49170	1562.90674	85.20440	1238.29797	1304.66638	187.93626	1379.84155	1235.61353	170.19507	1181.89417	1222.64136	176.76527	1058.29846	1220.77209	205.48149	930.74030	1248.92847	231.36604	813.98584	1202.04541	201.41858	817.34955	1208.20129	223.97629	737.13794	1619.12781	210.56746	1367.66980	1699.53223	243.03043	1152.30359	1715.93225	277.10919	1044.98169	1720.53796	319.08127	914.19965	1684.13281	361.85123	824.20386	1731.85620	337.86975	816.01819	1720.28247	371.39548	748.72174	1347.72864	273.95380	937.17181	1582.75195	258.22894	944.59839	1384.67200	107.92220	956.95520	1532.67688	99.33852	976.28674	1293.10962	296.31854	644.88007	1321.70264	364.20856	481.07593	1336.69910	316.38855	287.16687	1389.10828	297.75903	81.42761	1434.69556	260.70300	47.86600	1393.09326	441.30341	45.94433	1615.81909	173.86987	652.51947	1577.09253	163.61610	473.57980	1572.71326	88.49624	295.05862	1515.79346	36.06344	84.91865	1462.64990	-9.18491	59.76791	1497.81189	175.10918	35.71902	1441.24695	198.06825	1682.11292																					 
132	1.310	1390.25293	294.25323	1619.15955	1522.81836	294.17133	1629.36853	1397.42993	167.30557	1574.25659	1527.98303	172.07866	1583.91760	1464.42261	139.35936	1414.72620	1455.04077	114.74330	1101.32410	1457.99097	261.95953	1343.62170	1452.45459	313.92050	1180.02185	1562.62073	98.09882	1236.83459	1304.68127	202.21561	1378.28687	1236.41272	182.60286	1180.10718	1223.63867	187.29373	1056.52502	1220.95264	210.71950	927.89972	1247.79541	231.64856	809.81763	1201.09106	201.56360	814.82233	1207.40515	218.82448	732.85730	1619.54651	223.13013	1366.65906	1700.87122	256.75177	1152.00269	1717.68604	291.84659	1045.18042	1721.85901	337.61993	915.71423	1685.48145	383.79697	827.58368	1732.44812	358.96075	817.98285	1721.02148	395.51395	752.27130	1348.37268	288.09631	935.48877	1583.87646	269.54520	943.09088	1383.44397	121.88122	955.28827	1531.32202	111.66705	974.49310	1294.42883	309.80606	643.05261	1324.51746	376.98880	479.20627	1340.25830	339.63809	283.38889	1392.52197	336.04971	76.45934	1439.00464	302.44113	41.04993	1394.15991	481.96085	48.12158	1615.92432	183.36093	651.96753	1577.61169	171.23561	472.95822	1573.33179	92.99520	295.55603	1516.69580	36.70184	86.06425	1463.19104	-8.82279	61.72685	1497.96179	175.30972	35.62906																								 
133	1.320	1390.28247	307.35043	1617.78064	1522.81116	307.36084	1628.13025	1397.59924	180.45148	1572.78918	1528.16699	185.27773	1582.66309	1464.43298	152.80162	1413.33936	1454.48938	128.01749	1100.01196	1458.47742	275.40057	1342.16162	1453.30444	327.26663	1178.56604	1562.26050	111.00581	1235.36523	1304.83948	216.43550	1376.67151	1237.10107	195.41554	1178.47571	1224.61768	198.28018	1054.80273	1221.16748	216.68207	925.45978	1246.19958	232.87328	806.63818	1200.03943	202.56956	812.87531	1206.82837	214.09253	729.46588	1619.94763	235.68080	1365.60510	1702.13245	270.33032	1151.67981	1719.36401	306.47406	1045.38586	1723.10107	355.62180	917.22095	1686.51611	404.59467	830.78540	1732.82642	379.08389	819.80176	1721.52515	418.47440	755.74084	1348.99158	302.51096	934.10083	1584.49097	281.79041	941.58228	1382.39172	135.68719	953.72064	1530.09082	124.25986	972.63855	1295.75513	322.64041	640.65808	1327.99182	389.10303	476.74088	1344.05945	361.79861	280.14624	1395.26294	372.44864	72.82977	1442.79651	342.08279	36.85696	1394.67139	520.49487	50.72226	1616.05713	193.24612	651.31964	1578.03772	179.13472	472.24811	1573.84851	97.49269	296.13272	1516.99585	37.77852	87.49496	1463.96106	-8.37163	63.89213	1498.11072	175.54274	35.49147	1442.42786	224.14043	1679.56201																					 
134	1.330	1390.23682	320.42102	1616.28931	1522.79810	320.49411	1626.86487	1397.72412	193.66956	1571.20251	1528.27539	198.48790	1581.24890	1464.33044	166.33522	1411.95178	1453.95764	141.61372	1098.48914	1458.95825	288.89224	1340.65967	1454.07642	340.67899	1176.99792	1561.85400	123.97687	1233.91479	1304.99243	230.96634	1375.00146	1237.59241	208.45470	1176.79749	1225.48889	209.35095	1053.17346	1221.30542	223.22798	923.31207	1247.36609	233.03406	802.46667	1198.94617	204.52757	811.38623	1206.26270	209.99228	726.89008	1620.25757	248.22055	1364.53772	1703.33215	283.73788	1151.31946	1720.77319	320.89536	1045.51733	1724.29626	373.09564	918.64972	1687.96851	425.05334	834.26428	1733.37463	398.70746	821.70770	1722.67041	441.10248	759.93970	1349.45288	316.86096	932.70337	1584.97998	294.33112	940.02051	1381.16443	150.07889	951.83466	1528.88940	137.18340	970.66992	1296.18140	335.09091	637.68884	1332.03052	400.65134	474.06888	1348.18713	382.62567	277.56497	1397.69727	406.90546	70.86918	1445.81238	378.43341	35.28331	1395.29077	556.83441	53.36516	1616.20642	203.56465	650.61029	1578.53003	187.32387	471.60864	1574.41443	102.32483	296.79044	1518.27197	38.75850	89.19035	1464.81689	-7.83839	66.31926	1498.13000	175.76228	35.24744																								 
135	1.340	1390.18933	333.52625	1614.80371	1522.71521	333.56857	1625.53845	1397.80701	206.85756	1569.48474	1528.34741	211.71436	1579.70154	1464.18384	179.73410	1410.33594	1453.51892	155.06659	1097.10071	1459.36084	302.47922	1339.02893	1454.81274	354.14240	1175.39075	1561.43909	137.12686	1232.39539	1305.09058	245.56430	1373.31250	1237.94934	221.55855	1175.08801	1226.20093	220.78456	1051.56909	1221.30981	230.46063	921.42200	1246.66992	235.26653	799.81934	1197.79309	207.69014	810.32910	1206.28015	206.46571	724.84155	1620.46497	260.64578	1363.43884	1704.36218	296.94617	1150.91736	1721.99194	335.03198	1045.58813	1725.37732	389.90991	919.95740	1689.39966	444.54968	837.55676	1733.80420	417.64377	823.48969	1723.44250	462.81638	763.83246	1349.89905	331.13428	931.33044	1585.21143	307.25854	938.37341	1380.02112	163.84818	950.19775	1527.81763	150.00029	968.84607	1296.36438	346.41858	634.11353	1336.60229	411.94281	471.32794	1352.41663	402.07062	275.58090	1399.55786	438.62305	69.85653	1448.12476	412.60498	34.40011	1395.56409	589.64600	56.65587	1616.34094	214.21098	649.84827	1578.99243	195.69946	470.89270	1574.96228	107.40961	297.46933	1518.73340	39.50208	90.50174	1465.71045	-7.22368	69.00417	1498.31787	176.01146	35.04959	1442.14001	250.07057	1676.42078																					 
